<?xml version="1.0" standalone="no"?>
<!DOCTYPE svg PUBLIC "-//W3C//DTD SVG 20010904//EN"
 "http://www.w3.org/TR/2001/REC-SVG-20010904/DTD/svg10.dtd">
<svg version="1.0" xmlns="http://www.w3.org/2000/svg"
 width="512.000000pt" height="512.000000pt" viewBox="0 0 512.000000 512.000000"
 preserveAspectRatio="xMidYMid meet">

<g transform="translate(0.000000,512.000000) scale(0.100000,-0.100000)"
fill="#000000" stroke="none">
<path d="M2066 4148 c28 -33 77 -81 99 -97 11 -8 -9 15 -45 52 -63 65 -93 90
-54 45z"/>
<path d="M2190 4030 c0 -5 5 -10 11 -10 5 0 7 5 4 10 -3 6 -8 10 -11 10 -2 0
-4 -4 -4 -10z"/>
<path d="M2350 4029 c0 -5 5 -7 10 -4 6 3 10 8 10 11 0 2 -4 4 -10 4 -5 0 -10
-5 -10 -11z"/>
<path d="M2225 4010 c3 -5 8 -10 11 -10 2 0 4 5 4 10 0 6 -5 10 -11 10 -5 0
-7 -4 -4 -10z"/>
<path d="M2020 4006 c0 -2 7 -7 16 -10 8 -3 12 -2 9 4 -6 10 -25 14 -25 6z"/>
<path d="M2250 3996 c0 -2 7 -6 15 -10 8 -3 15 -1 15 4 0 6 -7 10 -15 10 -8 0
-15 -2 -15 -4z"/>
<path d="M2442 3922 c-1 -59 1 -71 9 -53 5 13 7 32 4 42 -4 10 -2 26 4 36 6
13 5 24 -3 35 -10 14 -12 3 -14 -60z"/>
<path d="M2332 3967 c33 -13 40 -29 28 -63 -8 -20 -7 -25 2 -22 7 3 14 20 16
39 3 30 -1 37 -23 47 -14 7 -31 12 -38 11 -7 -1 0 -6 15 -12z"/>
<path d="M2076 3955 c4 -8 11 -15 16 -15 6 0 5 6 -2 15 -7 8 -14 15 -16 15 -2
0 -1 -7 2 -15z"/>
<path d="M2492 3920 c0 -14 2 -19 5 -12 2 6 2 18 0 25 -3 6 -5 1 -5 -13z"/>
<path d="M2150 3910 c0 -6 7 -10 15 -10 8 0 15 2 15 4 0 2 -7 6 -15 10 -8 3
-15 1 -15 -4z"/>
<path d="M2562 3877 c-1 -21 -4 -42 -7 -47 -14 -23 8 -28 51 -13 l46 16 -30
28 c-17 16 -35 29 -41 29 -5 0 -11 6 -13 12 -3 7 -5 -4 -6 -25z"/>
<path d="M2200 3890 c8 -5 22 -10 30 -10 13 0 13 1 0 10 -8 5 -22 10 -30 10
-13 0 -13 -1 0 -10z"/>
<path d="M2500 3845 c0 -28 4 -44 10 -40 6 3 10 21 10 40 0 19 -4 37 -10 40
-6 4 -10 -12 -10 -40z"/>
<path d="M2330 3828 c-56 -12 -69 -24 -36 -32 20 -5 26 -13 26 -33 l0 -27 29
33 c27 31 47 72 33 70 -4 -1 -27 -6 -52 -11z"/>
<path d="M2420 3804 c0 -8 5 -12 10 -9 6 3 10 10 10 16 0 5 -4 9 -10 9 -5 0
-10 -7 -10 -16z"/>
<path d="M2690 3796 c0 -2 7 -6 15 -10 8 -3 15 -1 15 4 0 6 -7 10 -15 10 -8 0
-15 -2 -15 -4z"/>
<path d="M3560 3789 c0 -5 5 -7 10 -4 6 3 10 8 10 11 0 2 -4 4 -10 4 -5 0 -10
-5 -10 -11z"/>
<path d="M2600 3770 c-13 -9 -13 -10 0 -10 8 0 22 5 30 10 13 9 13 10 0 10 -8
0 -22 -5 -30 -10z"/>
<path d="M3680 3769 c0 -5 5 -7 10 -4 6 3 10 8 10 11 0 2 -4 4 -10 4 -5 0 -10
-5 -10 -11z"/>
<path d="M2378 3725 c-14 -18 -15 -24 -4 -28 8 -3 13 1 12 11 0 9 4 17 9 17
15 1 52 24 38 25 -6 0 -15 -5 -19 -11 -4 -7 -9 -8 -13 -1 -3 5 -14 0 -23 -13z"/>
<path d="M3671 3724 c0 -11 3 -14 6 -6 3 7 2 16 -1 19 -3 4 -6 -2 -5 -13z"/>
<path d="M2715 3679 c-4 -6 -5 -12 -2 -15 2 -3 7 2 10 11 7 17 1 20 -8 4z"/>
<path d="M2365 3670 c3 -5 8 -10 11 -10 2 0 4 5 4 10 0 6 -5 10 -11 10 -5 0
-7 -4 -4 -10z"/>
<path d="M3523 3620 c0 -36 2 -50 4 -32 2 17 2 47 0 65 -2 17 -4 3 -4 -33z"/>
<path d="M2687 3643 c-4 -3 -7 -11 -7 -17 0 -6 5 -5 12 2 6 6 9 14 7 17 -3 3
-9 2 -12 -2z"/>
<path d="M2335 3630 c-3 -5 1 -10 9 -10 9 0 16 5 16 10 0 6 -4 10 -9 10 -6 0
-13 -4 -16 -10z"/>
<path d="M3653 3580 c0 -36 2 -50 4 -32 2 17 2 47 0 65 -2 17 -4 3 -4 -33z"/>
<path d="M3713 3580 c0 -36 2 -50 4 -32 2 17 2 47 0 65 -2 17 -4 3 -4 -33z"/>
<path d="M2660 3600 c0 -5 5 -10 10 -10 6 0 10 5 10 10 0 6 -4 10 -10 10 -5 0
-10 -4 -10 -10z"/>
<path d="M2720 3586 c0 -9 -5 -16 -10 -16 -6 0 -10 -6 -8 -12 1 -7 -6 -29 -16
-48 -11 -19 -19 -47 -18 -62 0 -15 -4 -30 -9 -33 -5 -4 -9 -27 -9 -53 1 -60
15 -37 24 38 8 62 26 120 38 120 4 0 8 10 8 23 0 13 5 28 11 34 8 8 8 13 0 17
-6 4 -11 0 -11 -8z"/>
<path d="M2330 3570 c-12 -8 -11 -10 8 -10 12 0 22 5 22 10 0 13 -11 13 -30 0z"/>
<path d="M2645 3570 c-3 -5 -1 -10 4 -10 6 0 11 5 11 10 0 6 -2 10 -4 10 -3 0
-8 -4 -11 -10z"/>
<path d="M2626 3529 c-2 -8 -10 -31 -16 -51 -6 -21 -16 -38 -20 -38 -5 0 -7
-7 -4 -15 10 -25 22 -17 29 18 3 17 11 45 17 60 6 15 8 30 5 34 -4 3 -9 0 -11
-8z"/>
<path d="M2284 3505 c8 -8 18 -15 22 -15 3 0 1 7 -6 15 -7 8 -17 15 -22 15 -5
0 -3 -7 6 -15z"/>
<path d="M2340 3510 c36 -11 52 -11 45 0 -3 6 -21 10 -38 9 -31 -1 -31 -1 -7
-9z"/>
<path d="M3540 3501 c0 -6 4 -13 10 -16 6 -3 7 1 4 9 -7 18 -14 21 -14 7z"/>
<path d="M2410 3490 c8 -5 20 -10 25 -10 6 0 3 5 -5 10 -8 5 -19 10 -25 10 -5
0 -3 -5 5 -10z"/>
<path d="M3737 3483 c-4 -3 -7 -11 -7 -17 0 -6 5 -5 12 2 6 6 9 14 7 17 -3 3
-9 2 -12 -2z"/>
<path d="M2330 3466 c0 -2 7 -7 16 -10 8 -3 12 -2 9 4 -6 10 -25 14 -25 6z"/>
<path d="M3668 3440 c2 -16 6 -30 8 -30 2 0 4 14 4 30 0 17 -4 30 -8 30 -5 0
-7 -13 -4 -30z"/>
<path d="M3560 3457 c0 -18 42 -67 58 -66 12 0 11 3 -5 9 -13 5 -23 13 -23 18
0 11 -29 49 -30 39z"/>
<path d="M3495 3400 c-10 -22 -23 -41 -29 -42 -6 -1 14 -4 44 -7 30 -3 56 -5
58 -5 2 1 -10 22 -26 48 l-29 45 -18 -39z"/>
<path d="M2422 3376 c13 -20 27 -36 31 -36 9 0 -28 56 -44 66 -6 3 0 -10 13
-30z"/>
<path d="M2526 3362 c-2 -4 -1 -14 5 -22 7 -12 9 -10 9 8 0 23 -5 28 -14 14z"/>
<path d="M3716 3346 c21 -15 30 -14 19 3 -3 6 -14 11 -23 11 -13 0 -13 -2 4
-14z"/>
<path d="M3665 3330 c-3 -5 -2 -10 4 -10 5 0 13 5 16 10 3 6 2 10 -4 10 -5 0
-13 -4 -16 -10z"/>
<path d="M2460 3310 c0 -5 5 -10 10 -10 6 0 10 5 10 10 0 6 -4 10 -10 10 -5 0
-10 -4 -10 -10z"/>
<path d="M3620 3310 c0 -5 7 -7 15 -4 8 4 15 8 15 10 0 2 -7 4 -15 4 -8 0 -15
-4 -15 -10z"/>
<path d="M3555 3300 c-19 -8 -19 -9 2 -9 12 -1 25 4 28 9 7 12 -2 12 -30 0z"/>
<path d="M3475 3291 c-3 -6 3 -15 14 -20 27 -15 36 -14 22 2 -6 8 -8 17 -4 20
3 4 -1 7 -10 7 -9 0 -18 -4 -22 -9z"/>
<path d="M3661 3263 c-24 -24 -41 -26 -85 -8 -13 6 -17 5 -13 -2 19 -31 108
-20 122 14 9 25 2 24 -24 -4z"/>
<path d="M1464 3266 c-11 -8 -30 -16 -43 -18 -39 -5 -33 -21 14 -45 l45 -22 5
24 c3 14 7 36 10 50 6 28 -2 31 -31 11z"/>
<path d="M1546 3265 c-9 -26 -7 -32 5 -12 6 10 9 21 6 23 -2 3 -7 -2 -11 -11z"/>
<path d="M3310 3274 c0 -6 7 -19 15 -30 8 -10 14 -14 14 -9 0 6 -6 19 -14 29
-8 11 -15 15 -15 10z"/>
<path d="M1665 3260 c3 -5 8 -10 11 -10 2 0 4 5 4 10 0 6 -5 10 -11 10 -5 0
-7 -4 -4 -10z"/>
<path d="M2481 3254 c0 -11 3 -14 6 -6 3 7 2 16 -1 19 -3 4 -6 -2 -5 -13z"/>
<path d="M2532 3240 c0 -14 2 -19 5 -12 2 6 2 18 0 25 -3 6 -5 1 -5 -13z"/>
<path d="M1752 3230 c0 -14 2 -19 5 -12 2 6 2 18 0 25 -3 6 -5 1 -5 -13z"/>
<path d="M1686 3217 c3 -10 9 -15 12 -12 3 3 0 11 -7 18 -10 9 -11 8 -5 -6z"/>
<path d="M3695 3219 c-4 -5 -19 -15 -33 -20 l-26 -10 36 -35 c20 -19 39 -34
42 -34 3 0 6 25 6 55 0 51 -10 69 -25 44z"/>
<path d="M2490 3201 c0 -5 5 -13 10 -16 6 -3 10 -2 10 4 0 5 -4 13 -10 16 -5
3 -10 2 -10 -4z"/>
<path d="M1770 3190 c0 -5 5 -10 10 -10 6 0 10 5 10 10 0 6 -4 10 -10 10 -5 0
-10 -4 -10 -10z"/>
<path d="M3280 3191 c0 -6 5 -13 10 -16 6 -3 10 1 10 9 0 9 -4 16 -10 16 -5 0
-10 -4 -10 -9z"/>
<path d="M2605 3180 c-3 -5 1 -10 10 -10 9 0 13 5 10 10 -3 6 -8 10 -10 10 -2
0 -7 -4 -10 -10z"/>
<path d="M1380 3170 c20 -13 33 -13 25 0 -3 6 -14 10 -23 10 -15 0 -15 -2 -2
-10z"/>
<path d="M1705 3170 c3 -5 8 -10 11 -10 2 0 4 5 4 10 0 6 -5 10 -11 10 -5 0
-7 -4 -4 -10z"/>
<path d="M1785 3160 c3 -5 8 -10 11 -10 2 0 4 5 4 10 0 6 -5 10 -11 10 -5 0
-7 -4 -4 -10z"/>
<path d="M1432 3146 c7 -8 15 -12 17 -11 5 6 -10 25 -20 25 -5 0 -4 -6 3 -14z"/>
<path d="M1751 3110 c18 -25 39 -49 46 -53 7 -4 13 -14 13 -21 0 -12 29 -31
35 -24 2 2 -27 35 -63 73 -44 47 -54 56 -31 25z"/>
<path d="M2507 3100 c-43 -46 -41 -48 10 -20 45 24 50 24 87 5 38 -20 49 -19
36 5 -6 11 -19 20 -28 20 -10 0 -27 7 -38 15 -26 20 -24 20 -67 -25z"/>
<path d="M1388 3085 c25 -25 46 -44 48 -42 5 5 -73 87 -84 87 -5 0 11 -20 36
-45z"/>
<path d="M1820 3124 c0 -14 60 -68 67 -60 4 3 4 7 2 9 -2 1 -19 15 -37 31 -17
17 -32 26 -32 20z"/>
<path d="M3649 3097 c19 -20 37 -37 39 -37 11 0 -27 45 -49 59 -18 11 -16 6
10 -22z"/>
<path d="M1153 3094 c-12 -13 -19 -24 -14 -24 4 0 18 11 31 25 13 14 19 25 14
24 -5 -1 -19 -12 -31 -25z"/>
<path d="M3201 3094 c0 -11 3 -14 6 -6 3 7 2 16 -1 19 -3 4 -6 -2 -5 -13z"/>
<path d="M1240 3090 c0 -5 7 -10 16 -10 8 0 12 5 9 10 -3 6 -10 10 -16 10 -5
0 -9 -4 -9 -10z"/>
<path d="M1210 3065 c-7 -9 -11 -18 -8 -20 3 -3 11 1 18 10 7 9 11 18 8 20 -3
3 -11 -1 -18 -10z"/>
<path d="M1291 3064 c9 -10 14 -26 11 -34 -4 -12 -2 -13 9 -2 15 14 3 42 -22
50 -11 4 -10 1 2 -14z"/>
<path d="M3187 3063 c-4 -3 -7 -11 -7 -17 0 -6 5 -5 12 2 6 6 9 14 7 17 -3 3
-9 2 -12 -2z"/>
<path d="M1900 3046 c0 -4 59 -36 67 -36 1 0 3 4 3 9 0 5 -14 14 -31 20 -36
12 -39 13 -39 7z"/>
<path d="M1164 3027 c-5 -7 -21 -20 -35 -30 -24 -17 -24 -17 7 -3 17 8 36 22
43 30 16 19 1 21 -15 3z"/>
<path d="M1337 2980 c-25 -58 -25 -60 -4 -45 28 20 47 19 63 -2 12 -16 13 -15
14 10 0 30 -27 97 -40 97 -3 0 -18 -27 -33 -60z"/>
<path d="M2408 3033 c7 -3 16 -2 19 1 4 3 -2 6 -13 5 -11 0 -14 -3 -6 -6z"/>
<path d="M2516 3025 c-18 -14 -14 -15 45 -15 50 1 60 3 46 11 -31 18 -71 20
-91 4z"/>
<path d="M1454 3001 c9 -10 16 -23 16 -29 0 -7 5 -12 10 -12 12 0 13 13 3 24
-5 4 -8 12 -8 18 0 6 -8 12 -18 14 -17 2 -17 1 -3 -15z"/>
<path d="M1281 2992 c-6 -11 -17 -27 -23 -34 -7 -8 -22 -25 -33 -38 l-20 -25
29 25 c34 31 70 79 63 86 -3 3 -10 -3 -16 -14z"/>
<path d="M968 2993 c7 -3 16 -2 19 1 4 3 -2 6 -13 5 -11 0 -14 -3 -6 -6z"/>
<path d="M3132 2985 c-7 -8 -9 -15 -4 -15 5 0 15 7 22 15 16 19 -1 19 -18 0z"/>
<path d="M3225 2980 c-3 -5 -1 -10 4 -10 6 0 11 5 11 10 0 6 -2 10 -4 10 -3 0
-8 -4 -11 -10z"/>
<path d="M3316 2965 c-18 -27 -18 -28 0 -20 11 4 34 11 52 15 47 11 55 24 10
16 -24 -4 -37 -3 -40 5 -2 6 -12 -1 -22 -16z"/>
<path d="M3458 2983 c23 -2 61 -2 85 0 23 2 4 4 -43 4 -47 0 -66 -2 -42 -4z"/>
<path d="M3190 2955 c-7 -9 -8 -15 -2 -15 5 0 12 7 16 15 3 8 4 15 2 15 -2 0
-9 -7 -16 -15z"/>
<path d="M1025 2950 c-3 -6 1 -7 9 -4 18 7 21 14 7 14 -6 0 -13 -4 -16 -10z"/>
<path d="M3083 2943 c-15 -5 -17 -23 -4 -23 5 0 11 7 15 15 3 8 4 15 3 14 -1
0 -8 -3 -14 -6z"/>
<path d="M948 2933 c7 -3 16 -2 19 1 4 3 -2 6 -13 5 -11 0 -14 -3 -6 -6z"/>
<path d="M3140 2930 c-13 -8 -13 -10 2 -10 9 0 20 5 23 10 8 13 -5 13 -25 0z"/>
<path d="M3448 2933 c-37 -9 -16 -22 30 -18 26 2 63 4 82 5 34 2 34 3 -10 11
-50 8 -76 9 -102 2z"/>
<path d="M1905 2910 c3 -5 16 -15 28 -21 l22 -11 -22 21 c-23 22 -39 28 -28
11z"/>
<path d="M3360 2905 c-11 -13 -8 -13 19 -4 35 12 40 19 12 19 -10 0 -24 -7
-31 -15z"/>
<path d="M2135 2900 c-3 -5 -1 -10 4 -10 6 0 11 5 11 10 0 6 -2 10 -4 10 -3 0
-8 -4 -11 -10z"/>
<path d="M1573 2883 c-3 -10 -8 -22 -10 -28 -3 -5 3 -1 11 9 16 20 21 36 11
36 -3 0 -8 -8 -12 -17z"/>
<path d="M1170 2880 c-8 -5 -10 -10 -5 -10 6 0 17 5 25 10 8 5 11 10 5 10 -5
0 -17 -5 -25 -10z"/>
<path d="M1633 2865 c-15 -13 -23 -25 -17 -25 6 0 21 11 34 25 30 32 19 32
-17 0z"/>
<path d="M2978 2865 l52 -27 1 -76 c0 -43 3 -70 6 -62 3 8 12 22 20 31 12 14
12 26 2 78 -12 54 -16 61 -41 66 -95 18 -95 18 -40 -10z m69 -127 c-3 -8 -6
-5 -6 6 -1 11 2 17 5 13 3 -3 4 -12 1 -19z"/>
<path d="M3308 2883 c6 -2 18 -2 25 0 6 3 1 5 -13 5 -14 0 -19 -2 -12 -5z"/>
<path d="M2083 2859 c-37 -24 -37 -23 -23 -50 6 -10 15 -45 19 -77 l9 -57 1
81 1 80 38 22 c34 20 35 22 12 22 -14 0 -40 -10 -57 -21z"/>
<path d="M1115 2850 c-3 -5 -1 -10 4 -10 6 0 11 5 11 10 0 6 -2 10 -4 10 -3 0
-8 -4 -11 -10z"/>
<path d="M1760 2849 c0 -5 5 -7 10 -4 6 3 10 8 10 11 0 2 -4 4 -10 4 -5 0 -10
-5 -10 -11z"/>
<path d="M1971 2850 c-1 -21 16 -46 26 -37 4 5 3 11 -3 15 -6 4 -14 14 -17 22
-5 13 -5 13 -6 0z"/>
<path d="M2920 2835 c0 -2 14 -26 30 -52 l30 -47 0 35 c0 27 -6 37 -30 51 -17
9 -30 15 -30 13z"/>
<path d="M1058 2823 c7 -3 16 -2 19 1 4 3 -2 6 -13 5 -11 0 -14 -3 -6 -6z"/>
<path d="M2163 2816 c-18 -8 -23 -19 -23 -46 l1 -35 16 30 c8 17 22 38 31 48
17 19 8 20 -25 3z"/>
<path d="M3110 2820 c0 -5 5 -10 10 -10 6 0 10 5 10 10 0 6 -4 10 -10 10 -5 0
-10 -4 -10 -10z"/>
<path d="M3029 2361 l-4 -84 -35 -18 c-31 -17 -32 -19 -11 -19 20 0 91 35 91
45 0 2 -5 16 -11 32 -6 15 -14 51 -19 78 -7 48 -7 47 -11 -34z"/>
<path d="M2081 2380 c-2 -22 -3 -23 -10 -6 -5 13 -10 16 -15 8 -7 -12 14 -135
23 -127 2 3 9 1 15 -4 6 -4 31 -11 56 -15 l45 -7 -52 26 -52 26 -4 62 c-2 34
-4 51 -6 37z"/>
<path d="M2948 2334 c-29 -47 -27 -54 10 -26 16 13 23 26 20 44 -3 24 -4 23
-30 -18z"/>
<path d="M2142 2342 c1 -20 9 -33 29 -45 16 -9 29 -14 29 -11 0 6 -52 84 -56
84 -1 0 -2 -13 -2 -28z"/>
<path d="M1990 2300 c0 -5 5 -10 10 -10 6 0 10 5 10 10 0 6 -4 10 -10 10 -5 0
-10 -4 -10 -10z"/>
<path d="M3120 2305 c0 -3 7 -14 16 -23 15 -14 16 -14 13 3 -4 17 -29 35 -29
20z"/>
<path d="M3198 2273 c7 -3 16 -2 19 1 4 3 -2 6 -13 5 -11 0 -14 -3 -6 -6z"/>
<path d="M3345 2270 c-3 -5 -1 -10 4 -10 6 0 11 5 11 10 0 6 -2 10 -4 10 -3 0
-8 -4 -11 -10z"/>
<path d="M3469 2254 c-21 -24 -22 -26 -3 -16 25 13 50 42 37 42 -5 0 -20 -12
-34 -26z"/>
<path d="M3990 2269 c0 -5 5 -7 10 -4 6 3 10 8 10 11 0 2 -4 4 -10 4 -5 0 -10
-5 -10 -11z"/>
<path d="M3238 2263 c7 -3 16 -2 19 1 4 3 -2 6 -13 5 -11 0 -14 -3 -6 -6z"/>
<path d="M3540 2251 c-12 -24 -13 -34 -1 -27 9 6 22 46 15 46 -2 0 -8 -9 -14
-19z"/>
<path d="M3160 2246 c0 -2 14 -14 30 -26 17 -12 30 -19 30 -16 0 2 -13 14 -30
26 -16 12 -30 19 -30 16z"/>
<path d="M1745 2223 c-25 -14 -27 -18 -12 -21 10 -2 24 3 30 11 7 9 23 18 37
20 l25 4 -25 1 c-14 1 -38 -6 -55 -15z"/>
<path d="M3861 2173 c-23 -25 -39 -49 -35 -52 3 -3 10 3 16 13 6 11 26 35 44
53 18 18 29 33 25 33 -5 0 -28 -21 -50 -47z"/>
<path d="M1580 2201 l-55 -6 58 -8 c60 -8 107 -1 107 14 0 9 -20 9 -110 0z"/>
<path d="M1924 2174 c-49 -33 -49 -33 -42 -40 4 -3 18 5 32 17 15 13 39 29 54
35 16 8 21 13 11 13 -9 1 -34 -11 -55 -25z"/>
<path d="M2027 2186 c-4 -10 -1 -13 9 -9 15 6 19 23 5 23 -5 0 -11 -7 -14 -14z"/>
<path d="M3250 2190 c8 -5 24 -10 34 -10 26 0 18 6 -19 14 -22 5 -26 4 -15 -4z"/>
<path d="M3711 2177 c-1 -29 26 -97 38 -97 4 0 16 22 28 49 l20 49 -37 -5
c-31 -4 -39 -2 -43 13 -3 13 -5 10 -6 -9z"/>
<path d="M4158 2183 c7 -3 16 -2 19 1 4 3 -2 6 -13 5 -11 0 -14 -3 -6 -6z"/>
<path d="M1788 2172 c-20 -4 -22 -11 -9 -31 7 -11 11 -9 21 9 13 25 12 28 -12
22z"/>
<path d="M3636 2162 c-4 -7 -2 -20 6 -29 7 -9 12 -18 10 -21 -1 -3 5 -7 14 -8
14 -2 14 -1 1 14 -8 9 -17 26 -19 37 -2 15 -6 17 -12 7z"/>
<path d="M1726 2153 c-4 -4 -47 -11 -94 -14 l-87 -7 98 3 c57 1 103 7 110 14
8 8 7 11 -4 11 -9 0 -19 -3 -23 -7z"/>
<path d="M1969 2133 c-13 -17 -13 -17 6 -3 11 8 22 16 24 17 2 2 0 3 -6 3 -6
0 -17 -8 -24 -17z"/>
<path d="M3985 2128 c-39 -22 -95 -70 -95 -81 0 -7 11 0 24 14 13 15 40 36 60
48 20 13 36 25 36 27 0 6 -2 5 -25 -8z"/>
<path d="M1940 2099 c0 -5 5 -7 10 -4 6 3 10 8 10 11 0 2 -4 4 -10 4 -5 0 -10
-5 -10 -11z"/>
<path d="M2513 2099 c31 -18 67 -20 90 -4 20 14 18 15 -43 15 -50 -1 -61 -3
-47 -11z"/>
<path d="M3150 2100 c0 -5 5 -10 10 -10 6 0 10 5 10 10 0 6 -4 10 -10 10 -5 0
-10 -4 -10 -10z"/>
<path d="M3277 2095 c12 -8 43 -39 69 -68 38 -42 42 -44 19 -12 -16 22 -35 44
-42 48 -7 4 -13 14 -13 21 0 14 -21 26 -43 26 -6 0 -2 -7 10 -15z"/>
<path d="M3804 2085 c-7 -16 12 -45 29 -45 5 0 3 8 -5 18 -9 9 -13 23 -11 30
7 18 -6 15 -13 -3z"/>
<path d="M3190 2080 c20 -13 33 -13 25 0 -3 6 -14 10 -23 10 -15 0 -15 -2 -2
-10z"/>
<path d="M1925 2069 c-4 -6 -5 -12 -2 -15 2 -3 7 2 10 11 7 17 1 20 -8 4z"/>
<path d="M3706 2047 c16 -21 39 -44 52 -53 38 -25 22 -1 -31 46 l-51 45 30
-38z"/>
<path d="M1442 2038 c8 -12 25 -28 39 -37 18 -11 16 -6 -10 22 -39 42 -50 48
-29 15z"/>
<path d="M2600 2039 c-42 -23 -47 -23 -84 -4 -15 8 -33 15 -39 15 -19 0 19
-31 60 -50 l39 -17 37 38 c41 43 38 47 -13 18z"/>
<path d="M3230 2053 c0 -5 16 -21 35 -36 42 -33 46 -26 8 14 -27 28 -43 36
-43 22z"/>
<path d="M3950 2025 c-13 -14 -20 -25 -15 -25 4 0 18 11 31 25 13 14 20 25 15
25 -4 0 -18 -11 -31 -25z"/>
<path d="M1911 2024 c0 -11 3 -14 6 -6 3 7 2 16 -1 19 -3 4 -6 -2 -5 -13z"/>
<path d="M3855 2030 c3 -5 10 -10 16 -10 5 0 9 5 9 10 0 6 -7 10 -16 10 -8 0
-12 -4 -9 -10z"/>
<path d="M3661 2023 c-2 -28 20 -61 48 -73 18 -7 34 -10 37 -7 3 3 -10 10 -29
16 -25 9 -37 20 -45 44 -5 18 -10 27 -11 20z"/>
<path d="M1399 1998 c0 -2 -1 -27 -2 -56 -1 -35 2 -52 10 -52 6 0 15 5 18 11
4 5 19 15 33 20 l25 10 -36 34 c-33 32 -46 40 -48 33z"/>
<path d="M1891 1963 c0 -6 -4 -20 -7 -30 -5 -14 -4 -15 5 -7 7 7 11 20 8 30
-3 11 -5 14 -6 7z"/>
<path d="M3320 1959 c0 -5 5 -7 10 -4 6 3 10 8 10 11 0 2 -4 4 -10 4 -5 0 -10
-5 -10 -11z"/>
<path d="M1820 1943 c0 -13 5 -23 10 -23 13 0 13 11 0 30 -8 12 -10 11 -10 -7z"/>
<path d="M2490 1950 c0 -13 18 -22 24 -11 3 5 -1 11 -9 15 -8 3 -15 1 -15 -4z"/>
<path d="M3825 1950 c3 -5 8 -10 11 -10 2 0 4 5 4 10 0 6 -5 10 -11 10 -5 0
-7 -4 -4 -10z"/>
<path d="M2606 1931 c-3 -5 1 -11 9 -15 8 -3 15 -1 15 4 0 13 -18 22 -24 11z"/>
<path d="M3335 1930 c-3 -5 -2 -10 4 -10 5 0 13 5 16 10 3 6 2 10 -4 10 -5 0
-13 -4 -16 -10z"/>
<path d="M3636 1922 c-14 -50 -17 -82 -7 -82 5 0 13 5 16 10 4 6 11 8 16 5 5
-4 9 -2 9 4 0 5 12 11 27 13 31 4 44 28 14 28 -11 0 -23 4 -26 10 -3 5 -15 14
-25 20 -15 8 -20 6 -24 -8z"/>
<path d="M3420 1910 c0 -5 5 -10 11 -10 5 0 7 5 4 10 -3 6 -8 10 -11 10 -2 0
-4 -4 -4 -10z"/>
<path d="M1830 1901 c0 -6 4 -13 10 -16 6 -3 7 1 4 9 -7 18 -14 21 -14 7z"/>
<path d="M2583 1865 c0 -22 2 -30 4 -17 2 12 2 30 0 40 -3 9 -5 -1 -4 -23z"/>
<path d="M3361 1884 c0 -11 3 -14 6 -6 3 7 2 16 -1 19 -3 4 -6 -2 -5 -13z"/>
<path d="M1463 1878 c-13 -6 -23 -15 -23 -21 0 -5 10 -3 23 6 13 8 32 17 42
20 19 5 19 5 0 5 -11 0 -30 -4 -42 -10z"/>
<path d="M1780 1881 c0 -5 5 -13 10 -16 6 -3 10 -2 10 4 0 5 -4 13 -10 16 -5
3 -10 2 -10 -4z"/>
<path d="M3567 1871 c-4 -17 -3 -21 5 -13 5 5 8 16 6 23 -3 8 -7 3 -11 -10z"/>
<path d="M2631 1864 c0 -11 3 -14 6 -6 3 7 2 16 -1 19 -3 4 -6 -2 -5 -13z"/>
<path d="M1612 1840 c14 -22 24 -25 33 -11 3 6 -3 15 -14 20 -29 16 -33 14
-19 -9z"/>
<path d="M1530 1821 c0 -5 9 -7 20 -4 11 3 20 7 20 9 0 2 -9 4 -20 4 -11 0
-20 -4 -20 -9z"/>
<path d="M1480 1810 c-13 -9 -13 -10 0 -10 8 0 22 5 30 10 13 9 13 10 0 10 -8
0 -22 -5 -30 -10z"/>
<path d="M1680 1816 c0 -2 7 -7 16 -10 8 -3 12 -2 9 4 -6 10 -25 14 -25 6z"/>
<path d="M2640 1811 c0 -6 5 -13 10 -16 6 -3 10 1 10 9 0 9 -4 16 -10 16 -5 0
-10 -4 -10 -9z"/>
<path d="M1435 1790 c-3 -5 -2 -10 4 -10 5 0 13 5 16 10 3 6 2 10 -4 10 -5 0
-13 -4 -16 -10z"/>
<path d="M2458 1785 c-4 -11 -9 -45 -13 -75 -7 -58 -25 -110 -37 -110 -5 0 -8
-11 -8 -24 0 -14 -4 -28 -10 -31 -5 -3 -10 -10 -10 -16 0 -5 5 -9 10 -9 6 0
10 7 10 15 0 8 4 15 10 15 5 0 7 7 3 15 -3 9 1 21 10 28 17 14 51 152 45 187
-3 23 -4 23 -10 5z"/>
<path d="M1382 1778 c3 -7 13 -15 23 -17 17 -3 17 -2 3 13 -20 19 -31 21 -26
4z"/>
<path d="M2580 1769 c0 -11 4 -18 10 -14 5 3 7 12 3 20 -7 21 -13 19 -13 -6z"/>
<path d="M1544 1769 c-3 -5 -1 -9 5 -9 6 0 21 -18 33 -40 13 -22 26 -40 29
-40 6 0 19 50 18 67 0 4 8 10 18 14 12 5 6 8 -22 9 -22 1 -48 3 -57 5 -10 2
-20 -1 -24 -6z"/>
<path d="M2670 1772 c0 -6 12 -24 26 -39 l26 -28 -23 35 c-29 46 -29 45 -29
32z"/>
<path d="M2601 1724 c0 -11 3 -14 6 -6 3 7 2 16 -1 19 -3 4 -6 -2 -5 -13z"/>
<path d="M1475 1719 c-15 -7 -13 -8 12 -3 28 5 34 2 48 -26 9 -18 19 -29 22
-27 8 9 -37 67 -50 66 -7 0 -21 -5 -32 -10z"/>
<path d="M1442 1680 c0 -19 2 -27 5 -17 2 9 2 25 0 35 -3 9 -5 1 -5 -18z"/>
<path d="M2505 1679 c-8 -35 0 -51 10 -20 3 12 10 21 15 21 5 0 7 7 4 15 -10
24 -22 17 -29 -16z"/>
<path d="M1377 1653 c-4 -3 -7 -11 -7 -17 0 -6 5 -5 12 2 6 6 9 14 7 17 -3 3
-9 2 -12 -2z"/>
<path d="M2684 1636 c11 -9 24 -16 30 -16 12 0 7 5 -24 19 -24 11 -24 11 -6
-3z"/>
<path d="M1566 1625 c4 -8 8 -15 10 -15 2 0 4 7 4 15 0 8 -4 15 -10 15 -5 0
-7 -7 -4 -15z"/>
<path d="M2487 1613 c-4 -3 -7 -13 -7 -22 1 -13 3 -13 11 2 11 19 8 33 -4 20z"/>
<path d="M2735 1610 c3 -5 21 -10 38 -9 31 1 31 1 7 9 -36 11 -52 11 -45 0z"/>
<path d="M1403 1535 c0 -38 2 -53 4 -32 2 20 2 52 0 70 -2 17 -4 1 -4 -38z"/>
<path d="M1463 1535 c0 -33 2 -45 4 -27 2 18 2 45 0 60 -2 15 -4 0 -4 -33z"/>
<path d="M1593 1500 c0 -36 2 -50 4 -32 2 17 2 47 0 65 -2 17 -4 3 -4 -33z"/>
<path d="M2460 1549 c0 -5 5 -7 10 -4 6 3 10 8 10 11 0 2 -4 4 -10 4 -5 0 -10
-5 -10 -11z"/>
<path d="M2760 1550 c0 -13 11 -13 30 0 12 8 11 10 -7 10 -13 0 -23 -4 -23
-10z"/>
<path d="M2436 1513 c-3 -10 -9 -25 -12 -33 -3 -8 4 -4 15 10 22 27 26 40 12
40 -5 0 -11 -8 -15 -17z"/>
<path d="M2760 1490 c0 -5 4 -10 9 -10 6 0 13 5 16 10 3 6 -1 10 -9 10 -9 0
-16 -4 -16 -10z"/>
<path d="M2396 1443 c-6 -14 -5 -15 5 -6 7 7 10 15 7 18 -3 3 -9 -2 -12 -12z"/>
<path d="M2740 1450 c0 -5 5 -10 11 -10 5 0 7 5 4 10 -3 6 -8 10 -11 10 -2 0
-4 -4 -4 -10z"/>
<path d="M1441 1394 c0 -11 3 -14 6 -6 3 7 2 16 -1 19 -3 4 -6 -2 -5 -13z"/>
<path d="M2698 1389 c-10 -10 -14 -19 -9 -19 6 0 13 5 16 10 4 6 11 8 16 5 5
-3 6 1 3 9 -3 9 -7 16 -8 15 0 0 -9 -9 -18 -20z"/>
<path d="M2770 1348 c-33 -39 -46 -72 -24 -64 9 3 33 9 55 12 42 7 52 28 18
37 -14 4 -20 11 -16 21 11 28 -7 24 -33 -6z"/>
<path d="M1425 1350 c-3 -5 -1 -10 4 -10 6 0 11 5 11 10 0 6 -2 10 -4 10 -3 0
-8 -4 -11 -10z"/>
<path d="M2490 1350 c-13 -9 -13 -10 0 -10 8 0 22 5 30 10 13 9 13 10 0 10 -8
0 -22 -5 -30 -10z"/>
<path d="M2400 1330 c0 -5 7 -10 16 -10 8 0 12 5 9 10 -3 6 -10 10 -16 10 -5
0 -9 -4 -9 -10z"/>
<path d="M2686 1321 c-4 -7 -5 -15 -2 -18 9 -9 19 4 14 18 -4 11 -6 11 -12 0z"/>
<path d="M2525 1308 c-16 -6 -37 -13 -45 -15 -15 -4 -12 -8 57 -64 19 -16 20
-15 22 37 1 30 0 54 -1 53 -2 -1 -16 -6 -33 -11z"/>
<path d="M2607 1313 c-11 -10 -8 -71 3 -78 6 -4 10 12 10 39 0 47 -2 51 -13
39z"/>
<path d="M2666 1242 c-4 -18 -6 -36 -3 -39 3 -3 2 -16 -3 -29 -6 -14 -6 -26 0
-29 12 -7 23 51 18 96 l-3 34 -9 -33z"/>
<path d="M2747 1233 c-4 -3 -7 -21 -7 -40 0 -27 5 -35 26 -43 35 -14 55 -11
24 3 -34 15 -40 26 -33 59 5 28 2 34 -10 21z"/>
<path d="M2890 1230 c8 -5 22 -10 30 -10 13 0 13 1 0 10 -8 5 -22 10 -30 10
-13 0 -13 -1 0 -10z"/>
<path d="M2948 1213 c7 -3 16 -2 19 1 4 3 -2 6 -13 5 -11 0 -14 -3 -6 -6z"/>
<path d="M2621 1194 c0 -11 3 -14 6 -6 3 7 2 16 -1 19 -3 4 -6 -2 -5 -13z"/>
<path d="M3020 1176 c0 -2 8 -10 18 -17 15 -13 16 -12 3 4 -13 16 -21 21 -21
13z"/>
<path d="M2835 1130 c3 -5 14 -10 23 -10 15 0 15 2 2 10 -20 13 -33 13 -25 0z"/>
<path d="M3077 1119 c7 -7 15 -10 18 -7 3 3 -2 9 -12 12 -14 6 -15 5 -6 -5z"/>
<path d="M2880 1110 c0 -5 5 -10 11 -10 5 0 7 5 4 10 -3 6 -8 10 -11 10 -2 0
-4 -4 -4 -10z"/>
<path d="M2915 1090 c3 -5 8 -10 11 -10 2 0 4 5 4 10 0 6 -5 10 -11 10 -5 0
-7 -4 -4 -10z"/>
<path d="M3000 1017 c35 -37 66 -67 68 -67 8 0 -37 49 -83 90 -41 37 -39 33
15 -23z"/>
</g>
</svg>
